<svg width="29" height="29" viewBox="0 0 29 29" fill="none" xmlns="http://www.w3.org/2000/svg">
<path fill-rule="evenodd" clip-rule="evenodd" d="M14.5 5.96856L25.375 16.8436V24.4688C25.375 25.1898 25.0886 25.8813 24.5787 26.3912C24.0688 26.9011 23.3773 27.1875 22.6562 27.1875H6.34375C5.62269 27.1875 4.93117 26.9011 4.4213 26.3912C3.91144 25.8813 3.625 25.1898 3.625 24.4688V16.8436L14.5 5.96856ZM23.5625 4.53125V10.875L19.9375 7.25V4.53125C19.9375 4.2909 20.033 4.06039 20.2029 3.89043C20.3729 3.72048 20.6034 3.625 20.8438 3.625H22.6562C22.8966 3.625 23.1271 3.72048 23.2971 3.89043C23.467 4.06039 23.5625 4.2909 23.5625 4.53125Z" fill="white"/>
<path fill-rule="evenodd" clip-rule="evenodd" d="M13.2186 2.71879C13.5585 2.37899 14.0194 2.18811 14.5 2.18811C14.9807 2.18811 15.4416 2.37899 15.7815 2.71879L27.8292 14.7647C27.9993 14.9348 28.0949 15.1656 28.0949 15.4063C28.0949 15.6469 27.9993 15.8777 27.8292 16.0479C27.659 16.2181 27.4282 16.3137 27.1875 16.3137C26.9469 16.3137 26.7161 16.2181 26.5459 16.0479L14.5 4.00022L2.45417 16.0479C2.284 16.2181 2.0532 16.3137 1.81255 16.3137C1.57189 16.3137 1.34109 16.2181 1.17092 16.0479C1.00075 15.8777 0.905151 15.6469 0.905151 15.4063C0.905151 15.1656 1.00075 14.9348 1.17092 14.7647L13.2186 2.71879Z" fill="white"/>
</svg>
