<svg width="29" height="29" viewBox="0 0 29 29" fill="none" xmlns="http://www.w3.org/2000/svg">
<path d="M11.7812 0C11.0602 0 10.3687 0.286439 9.8588 0.796303C9.34894 1.30617 9.0625 1.99769 9.0625 2.71875V4.53125C9.0625 5.25231 9.34894 5.94383 9.8588 6.4537C10.3687 6.96356 11.0602 7.25 11.7812 7.25H17.2188C17.9398 7.25 18.6313 6.96356 19.1412 6.4537C19.6511 5.94383 19.9375 5.25231 19.9375 4.53125V2.71875C19.9375 1.99769 19.6511 1.30617 19.1412 0.796303C18.6313 0.286439 17.9398 0 17.2188 0L11.7812 0ZM17.2188 1.8125C17.4591 1.8125 17.6896 1.90798 17.8596 2.07793C18.0295 2.24789 18.125 2.4784 18.125 2.71875V4.53125C18.125 4.7716 18.0295 5.00211 17.8596 5.17207C17.6896 5.34202 17.4591 5.4375 17.2188 5.4375H11.7812C11.5409 5.4375 11.3104 5.34202 11.1404 5.17207C10.9705 5.00211 10.875 4.7716 10.875 4.53125V2.71875C10.875 2.4784 10.9705 2.24789 11.1404 2.07793C11.3104 1.90798 11.5409 1.8125 11.7812 1.8125H17.2188Z" fill="white"/>
<path d="M7.25 2.71875H5.4375C4.47609 2.71875 3.55406 3.10067 2.87424 3.78049C2.19442 4.46031 1.8125 5.38234 1.8125 6.34375V25.375C1.8125 26.3364 2.19442 27.2584 2.87424 27.9383C3.55406 28.6181 4.47609 29 5.4375 29H23.5625C24.5239 29 25.4459 28.6181 26.1258 27.9383C26.8056 27.2584 27.1875 26.3364 27.1875 25.375V6.34375C27.1875 5.38234 26.8056 4.46031 26.1258 3.78049C25.4459 3.10067 24.5239 2.71875 23.5625 2.71875H21.75V4.53125C21.75 5.1263 21.6328 5.71553 21.4051 6.26528C21.1774 6.81504 20.8436 7.31456 20.4228 7.73533C20.0021 8.15609 19.5025 8.48986 18.9528 8.71758C18.403 8.9453 17.8138 9.0625 17.2188 9.0625H11.7812C10.5795 9.0625 9.42695 8.5851 8.57717 7.73533C7.7274 6.88555 7.25 5.73301 7.25 4.53125V2.71875ZM18.125 14.5C18.125 14.0193 18.316 13.5583 18.6559 13.2184C18.9958 12.8785 19.4568 12.6875 19.9375 12.6875C20.4182 12.6875 20.8792 12.8785 21.2191 13.2184C21.559 13.5583 21.75 14.0193 21.75 14.5V23.5625C21.75 24.0432 21.559 24.5042 21.2191 24.8441C20.8792 25.184 20.4182 25.375 19.9375 25.375C19.4568 25.375 18.9958 25.184 18.6559 24.8441C18.316 24.5042 18.125 24.0432 18.125 23.5625V14.5ZM7.25 21.75C7.25 21.2693 7.44096 20.8083 7.78087 20.4684C8.12078 20.1285 8.5818 19.9375 9.0625 19.9375C9.5432 19.9375 10.0042 20.1285 10.3441 20.4684C10.684 20.8083 10.875 21.2693 10.875 21.75V23.5625C10.875 24.0432 10.684 24.5042 10.3441 24.8441C10.0042 25.184 9.5432 25.375 9.0625 25.375C8.5818 25.375 8.12078 25.184 7.78087 24.8441C7.44096 24.5042 7.25 24.0432 7.25 23.5625V21.75ZM14.5 16.3125C14.9807 16.3125 15.4417 16.5035 15.7816 16.8434C16.1215 17.1833 16.3125 17.6443 16.3125 18.125V23.5625C16.3125 24.0432 16.1215 24.5042 15.7816 24.8441C15.4417 25.184 14.9807 25.375 14.5 25.375C14.0193 25.375 13.5583 25.184 13.2184 24.8441C12.8785 24.5042 12.6875 24.0432 12.6875 23.5625V18.125C12.6875 17.6443 12.8785 17.1833 13.2184 16.8434C13.5583 16.5035 14.0193 16.3125 14.5 16.3125Z" fill="white"/>
</svg>
